<svg width="109" height="41" viewBox="0 0 109 41" fill="none" xmlns="http://www.w3.org/2000/svg">
<path fill-rule="evenodd" clip-rule="evenodd" d="M44.6493 7.82097L44.6493 26.4126C44.6493 29.7609 47.3635 32.4751 50.7118 32.4751C54.06 32.4751 56.7743 29.7609 56.7743 26.4126L56.7743 7.82096C56.7743 4.47274 54.06 1.75846 50.7118 1.75846C47.3635 1.75846 44.6493 4.47274 44.6493 7.82097ZM50.7118 34.0918C54.9529 34.0918 58.3909 30.6537 58.3909 26.4126L58.3909 7.82096C58.3909 3.57988 54.9529 0.141796 50.7118 0.141795C46.4707 0.141795 43.0326 3.57988 43.0326 7.82097L43.0326 26.4126C43.0326 30.6537 46.4707 34.0918 50.7118 34.0918Z" fill="white"/>
<path d="M46.2649 8.63034C46.2649 6.17497 48.2554 4.1845 50.7107 4.18451C53.1661 4.18451 55.1566 6.17497 55.1566 8.63034C55.1566 11.0857 53.1661 13.0762 50.7107 13.0762C48.2554 13.0762 46.2649 11.0857 46.2649 8.63034Z" fill="#A41045"/>
<path d="M6.24522 13.65C6.85391 12.7005 7.69391 11.9335 8.76522 11.3492C9.83652 10.7648 11.0904 10.4727 12.527 10.4727C14.207 10.4727 15.7287 10.8987 17.0922 11.7509C18.4557 12.6031 19.527 13.8205 20.3061 15.4031C21.1096 16.9857 21.5113 18.824 21.5113 20.9179C21.5113 23.0118 21.1096 24.8622 20.3061 26.4692C19.527 28.0518 18.4557 29.2814 17.0922 30.1579C15.7287 31.01 14.207 31.4361 12.527 31.4361C11.1148 31.4361 9.86087 31.144 8.76522 30.5596C7.69391 29.9753 6.85391 29.2205 6.24522 28.2953V40.8587H0V10.7648H6.24522V13.65ZM15.1565 20.9179C15.1565 19.3596 14.7183 18.1422 13.8417 17.2657C12.9896 16.3648 11.9304 15.9144 10.6643 15.9144C9.42261 15.9144 8.36348 16.3648 7.48696 17.2657C6.63478 18.1666 6.2087 19.3961 6.2087 20.9544C6.2087 22.5127 6.63478 23.7422 7.48696 24.6431C8.36348 25.544 9.42261 25.9944 10.6643 25.9944C11.9061 25.9944 12.9652 25.544 13.8417 24.6431C14.7183 23.7179 15.1565 22.4761 15.1565 20.9179Z" fill="white"/>
<path d="M31.0329 14.1614C31.7634 13.0414 32.6764 12.1648 33.7721 11.5318C34.8677 10.8744 36.0851 10.5457 37.4242 10.5457V17.1561H35.7077C34.1494 17.1561 32.9807 17.497 32.2016 18.1787C31.4225 18.8361 31.0329 20.0048 31.0329 21.6848V31.144H24.7877V10.7648H31.0329V14.1614Z" fill="white"/>
<path d="M64.3061 21.0633C64.3061 19.0181 64.72 17.2285 65.5478 15.6946C66.3757 14.1363 67.5078 12.9311 68.9444 12.0789C70.4052 11.2268 72.0365 10.8007 73.8383 10.8007C75.3965 10.8007 76.8452 11.1659 78.1844 11.8963C79.5235 12.6024 80.5461 13.5398 81.2522 14.7085V4.11719H84.6122V31.1433H81.2522V27.3815C80.5948 28.5746 79.6209 29.5607 78.3304 30.3398C77.04 31.0946 75.5304 31.472 73.8017 31.472C72.0244 31.472 70.4052 31.0337 68.9444 30.1572C67.5078 29.2807 66.3757 28.0511 65.5478 26.4685C64.72 24.8859 64.3061 23.0841 64.3061 21.0633ZM81.2522 21.0998C81.2522 19.5902 80.9478 18.2754 80.3391 17.1554C79.7304 16.0354 78.9026 15.1833 77.8557 14.5989C76.833 13.9902 75.7009 13.6859 74.4591 13.6859C73.2174 13.6859 72.0852 13.9781 71.0626 14.5624C70.04 15.1468 69.2244 15.9989 68.6157 17.1189C68.007 18.2389 67.7026 19.5537 67.7026 21.0633C67.7026 22.5972 68.007 23.9363 68.6157 25.0807C69.2244 26.2007 70.04 27.065 71.0626 27.6737C72.0852 28.2581 73.2174 28.5502 74.4591 28.5502C75.7009 28.5502 76.833 28.2581 77.8557 27.6737C78.9026 27.065 79.7304 26.2007 80.3391 25.0807C80.9478 23.9363 81.2522 22.6094 81.2522 21.0998Z" fill="white"/>
<path d="M108.489 20.3694C108.489 21.0024 108.453 21.672 108.38 22.3781H92.3833C92.5051 24.3502 93.1746 25.8963 94.392 27.0163C95.6338 28.112 97.1311 28.6598 98.8842 28.6598C100.321 28.6598 101.514 28.3311 102.463 27.6737C103.437 26.992 104.119 26.0911 104.509 24.9711H108.088C107.552 26.8946 106.481 28.465 104.874 29.6824C103.267 30.8754 101.27 31.472 98.8842 31.472C96.9851 31.472 95.2807 31.0459 93.7711 30.1937C92.2859 29.3415 91.1172 28.1363 90.2651 26.5781C89.4129 24.9954 88.9868 23.1694 88.9868 21.0998C88.9868 19.0302 89.4007 17.2163 90.2285 15.6581C91.0564 14.0998 92.2129 12.9068 93.6981 12.0789C95.2077 11.2268 96.9364 10.8007 98.8842 10.8007C100.783 10.8007 102.463 11.2146 103.924 12.0424C105.385 12.8702 106.505 14.0146 107.284 15.4754C108.088 16.912 108.489 18.5433 108.489 20.3694ZM105.056 19.6754C105.056 18.4094 104.776 17.3259 104.216 16.425C103.656 15.4998 102.889 14.8059 101.915 14.3433C100.966 13.8563 99.9068 13.6128 98.7381 13.6128C97.0581 13.6128 95.6216 14.1485 94.4285 15.2198C93.2598 16.2911 92.5903 17.7763 92.4198 19.6754H105.056Z" fill="white"/>
</svg>
